<?xml version="1.0" encoding="utf-8"?><svg xmlns="http://www.w3.org/2000/svg" xmlns:xlink="http://www.w3.org/1999/xlink"><symbol viewBox="0 0 24 25" id="blog" xmlns="http://www.w3.org/2000/svg"><path d="M2 3.5H8C9.06087 3.5 10.0783 3.92143 10.8284 4.67157C11.5786 5.42172 12 6.43913 12 7.5V21.5C12 20.7044 11.6839 19.9413 11.1213 19.3787C10.5587 18.8161 9.79565 18.5 9 18.5H2V3.5Z" stroke-width="1.25" stroke-linecap="round" stroke-linejoin="round"/><path d="M22 3.5H16C14.9391 3.5 13.9217 3.92143 13.1716 4.67157C12.4214 5.42172 12 6.43913 12 7.5V21.5C12 20.7044 12.3161 19.9413 12.8787 19.3787C13.4413 18.8161 14.2044 18.5 15 18.5H22V3.5Z" stroke-width="1.25" stroke-linecap="round" stroke-linejoin="round"/></symbol><symbol viewBox="0 0 25 25" id="phone" xmlns="http://www.w3.org/2000/svg"><path d="M22.5 17.4201V20.4201C22.5011 20.6986 22.4441 20.9743 22.3325 21.2294C22.2209 21.4846 22.0573 21.7137 21.8521 21.902C21.6468 22.0902 21.4046 22.2336 21.1407 22.3228C20.8769 22.412 20.5974 22.4452 20.32 22.4201C17.2428 22.0857 14.287 21.0342 11.69 19.3501C9.27382 17.8148 7.22533 15.7663 5.68999 13.3501C3.99997 10.7413 2.94824 7.77109 2.61999 4.6801C2.595 4.40356 2.62787 4.12486 2.71649 3.86172C2.80512 3.59859 2.94756 3.35679 3.13476 3.15172C3.32196 2.94665 3.5498 2.78281 3.80379 2.67062C4.05777 2.55843 4.33233 2.50036 4.60999 2.5001H7.60999C8.0953 2.49532 8.56579 2.66718 8.93376 2.98363C9.30173 3.30008 9.54207 3.73954 9.60999 4.2201C9.73662 5.18016 9.97144 6.12282 10.31 7.0301C10.4445 7.38802 10.4737 7.77701 10.3939 8.15098C10.3141 8.52494 10.1289 8.86821 9.85999 9.1401L8.58999 10.4101C10.0135 12.9136 12.0864 14.9865 14.59 16.4101L15.86 15.1401C16.1319 14.8712 16.4751 14.6859 16.8491 14.6062C17.2231 14.5264 17.6121 14.5556 17.97 14.6901C18.8773 15.0286 19.8199 15.2635 20.78 15.3901C21.2658 15.4586 21.7094 15.7033 22.0265 16.0776C22.3437 16.4519 22.5122 16.9297 22.5 17.4201Z" stroke-width="1.25" stroke-linecap="round" stroke-linejoin="round"/></symbol><symbol viewBox="0 0 12 11" id="star" xmlns="http://www.w3.org/2000/svg"><path d="M6 1.20729L7.22361 3.89652L7.34093 4.15437L7.62241 4.18627L10.5581 4.51897L8.37864 6.51371L8.16967 6.70497L8.22631 6.98253L8.81708 9.87738L6.24647 8.42097L6 8.28133L5.75353 8.42097L3.18292 9.87738L3.77369 6.98253L3.83033 6.70497L3.62136 6.51371L1.44187 4.51897L4.37759 4.18627L4.65907 4.15437L4.77639 3.89652L6 1.20729Z"/></symbol><symbol viewBox="0 0 25 24" id="user" xmlns="http://www.w3.org/2000/svg"><path d="M12.6235 11C14.8326 11 16.6235 9.20914 16.6235 7C16.6235 4.79086 14.8326 3 12.6235 3C10.4143 3 8.62347 4.79086 8.62347 7C8.62347 9.20914 10.4143 11 12.6235 11Z" stroke-width="1.25" stroke-linecap="round" stroke-linejoin="round"/><path d="M20.6235 21V19C20.6235 17.9391 20.202 16.9217 19.4519 16.1716C18.7018 15.4214 17.6843 15 16.6235 15H8.62347C7.56261 15 6.54519 15.4214 5.79505 16.1716C5.0449 16.9217 4.62347 17.9391 4.62347 19V21" stroke-width="1.25" stroke-linecap="round" stroke-linejoin="round"/><path d="M4.37653 21H20.5765" stroke-width="1.25"/></symbol></svg>