<?xml version="1.0" encoding="utf-8"?><svg viewBox="0 0 25 25" xmlns="http://www.w3.org/2000/svg" xmlns:xlink="http://www.w3.org/1999/xlink"><style>:root>svg{display:none}:root>svg:target{display:block}</style><svg fill="none" viewBox="0 0 24 25" id="blog" xmlns="http://www.w3.org/2000/svg"><path d="M2 3.5h6a4 4 0 0 1 4 4v14a3 3 0 0 0-3-3H2v-15ZM22 3.5h-6a4 4 0 0 0-4 4v14a3 3 0 0 1 3-3h7v-15Z" stroke="#383838" stroke-width="1.25" stroke-linecap="round" stroke-linejoin="round"/></svg><svg fill="none" viewBox="0 0 25 25" id="phone" xmlns="http://www.w3.org/2000/svg"><path d="M22.5 17.42v3a2 2 0 0 1-2.18 2 19.79 19.79 0 0 1-8.63-3.07 19.5 19.5 0 0 1-6-6 19.79 19.79 0 0 1-3.07-8.67A2 2 0 0 1 4.61 2.5h3a2 2 0 0 1 2 1.72c.127.96.361 1.903.7 2.81a2 2 0 0 1-.45 2.11l-1.27 1.27a16 16 0 0 0 6 6l1.27-1.27a2 2 0 0 1 2.11-.45c.907.339 1.85.574 2.81.7a2 2 0 0 1 1.72 2.03Z" stroke="#383838" stroke-width="1.25" stroke-linecap="round" stroke-linejoin="round"/></svg><svg fill="none" viewBox="0 0 12 11" id="star" xmlns="http://www.w3.org/2000/svg"><path d="m6 1.207 1.224 2.69.117.257.281.032 2.936.333-2.18 1.995-.208.191.056.278.591 2.894-2.57-1.456L6 8.281l-.246.14-2.571 1.456.59-2.894.057-.278-.209-.191-2.18-1.995 2.937-.333.281-.032.117-.257L6 1.207Z" stroke="#FF9D29"/></svg><svg fill="none" viewBox="0 0 25 24" id="user" xmlns="http://www.w3.org/2000/svg"><path d="M12.623 11a4 4 0 1 0 0-8 4 4 0 0 0 0 8ZM20.623 21v-2a4 4 0 0 0-4-4h-8a4 4 0 0 0-4 4v2" stroke="#383838" stroke-width="1.25" stroke-linecap="round" stroke-linejoin="round"/><path d="M4.377 21h16.2" stroke="#383838" stroke-width="1.25"/></svg></svg>