<svg width="25" height="24" viewBox="0 0 25 24" fill="none" xmlns="http://www.w3.org/2000/svg">
<path d="M12.6235 11C14.8326 11 16.6235 9.20914 16.6235 7C16.6235 4.79086 14.8326 3 12.6235 3C10.4143 3 8.62347 4.79086 8.62347 7C8.62347 9.20914 10.4143 11 12.6235 11Z" stroke="#383838" stroke-width="1.25" stroke-linecap="round" stroke-linejoin="round"/>
<path d="M20.6235 21V19C20.6235 17.9391 20.202 16.9217 19.4519 16.1716C18.7018 15.4214 17.6843 15 16.6235 15H8.62347C7.56261 15 6.54519 15.4214 5.79505 16.1716C5.0449 16.9217 4.62347 17.9391 4.62347 19V21" stroke="#383838" stroke-width="1.25" stroke-linecap="round" stroke-linejoin="round"/>
<path d="M4.37653 21H20.5765" stroke="#383838" stroke-width="1.25"/>
</svg>
